<svg id="Layer_1" data-name="Layer 1" xmlns="http://www.w3.org/2000/svg" xmlns:xlink="http://www.w3.org/1999/xlink" viewBox="0 0 355.68 289.76"><defs><linearGradient id="linear-gradient" x1="253.52" y1="137.2" x2="173.83" y2="430.55" gradientUnits="userSpaceOnUse"><stop offset="0.01"/><stop offset="0.13" stop-opacity="0.69"/><stop offset="0.25" stop-opacity="0.32"/><stop offset="1" stop-opacity="0"/></linearGradient><linearGradient id="linear-gradient-2" x1="117" y1="200.47" x2="-17.04" y2="314.66" xlink:href="#linear-gradient"/><linearGradient id="linear-gradient-3" x1="1138.46" y1="191.97" x2="1004.42" y2="306.15" gradientTransform="matrix(-1, 0, 0, 1, 1368.9, 0)" xlink:href="#linear-gradient"/><linearGradient id="linear-gradient-4" x1="-29.27" y1="294.18" x2="139.3" y2="428.8" gradientTransform="matrix(1.07, -0.1, 0, 1, 118.61, -197.3)" gradientUnits="userSpaceOnUse"><stop offset="0" stop-color="#fff"/><stop offset="1" stop-color="#cbcbcb"/></linearGradient><linearGradient id="linear-gradient-5" x1="186.03" y1="214.87" x2="161.24" y2="297.8" xlink:href="#linear-gradient"/><linearGradient id="linear-gradient-6" x1="53.63" y1="240.56" x2="53.54" y2="251.83" gradientTransform="matrix(1.07, -0.1, 0, 1, 93.51, -209.92)" xlink:href="#linear-gradient-4"/><linearGradient id="linear-gradient-7" x1="65.18" y1="241.9" x2="65.8" y2="250.15" gradientTransform="matrix(0.97, 0.45, -0.5, 0.86, 250.98, -199.45)" xlink:href="#linear-gradient-4"/><linearGradient id="linear-gradient-8" x1="178.47" y1="124.05" x2="267.29" y2="154.88" gradientTransform="matrix(1, 0.02, 0, 1, 3.8, 31.9)" xlink:href="#linear-gradient-4"/><linearGradient id="linear-gradient-9" x1="261.9" y1="124.5" x2="151.72" y2="146.14" gradientUnits="userSpaceOnUse"><stop offset="0.01" stop-color="#fff"/><stop offset="1" stop-color="#fff" stop-opacity="0"/></linearGradient><linearGradient id="linear-gradient-10" x1="259.55" y1="125.82" x2="266.04" y2="132.68" gradientTransform="matrix(1, 0, 0, 1, 0, 0)" xlink:href="#linear-gradient-4"/><linearGradient id="linear-gradient-11" x1="252.32" y1="35.88" x2="289.51" y2="76.21" xlink:href="#linear-gradient"/><linearGradient id="linear-gradient-12" x1="257.28" y1="25.95" x2="257.28" y2="69.23" xlink:href="#linear-gradient"/></defs><title>14</title><path d="M171.76,54.57C150.85,72,134,94.23,111.76,110c-20.57,14.53-45.4,23.24-63.1,41.14a81.54,81.54,0,0,0,.09,114.78c21.17,21.33,52.47,29.37,82.48,30.95s60.1-2.35,90.11-.74c28.4,1.53,56.64,8,85,5.86s58.39-15.51,69.59-41.64c12.4-28.92-1.81-61.46-11.61-91.35a323.5,323.5,0,0,1-14.56-69.62c-3.4-35.41-9.66-84.58-54.22-86.54C251.28,10.83,205.69,26.24,171.76,54.57Z" transform="translate(-25.09 -12.62)" fill="#464d48" opacity="0.18" style="isolation:isolate"/><path d="M291.08,251.38c1.84.94,2.11,3.64,1.07,5.41s-3,2.83-4.83,3.7a63.69,63.69,0,0,1-13.78,4.57c-2.15.46-5,1.68-4.46,3.82.39,1.71,2.6,2.12,4.35,2.15,26,.4,51.71-6.58,77.7-6,1.72,0,3.63.19,4.81,1.45,1.49,1.59,1.09,4.15.25,6.16-4.64,11.16-18,15.51-29.94,17.44-27.19,4.41-54.93,3.15-82.47,2.84-54.85-.6-109.85,2.63-164.5-2.15a6.26,6.26,0,0,1-3.28-.92,5,5,0,0,1-1.67-3.37c-.93-6.65,4.39-12.9,10.65-15.33s13.21-2,19.91-1.51c28.39,2,56.9,3.7,85.28,1.56a245.31,245.31,0,0,0,54.8-10c8.19-2.55,16.48-7.57,24.85-9.1,2.58-.47,5.2-.15,7.8-.28C281.4,251.63,287.56,249.59,291.08,251.38Z" transform="translate(-25.09 -12.62)" fill="url(#linear-gradient)"/><path d="M25.09,203.6c.1,3.35,1.75,6.43,3.4,9.35C36,226.2,44.4,239.24,56,249.08c17.08,14.45,39.45,20.67,61.05,26.51-1.94-.94-4.26-10.89-5.12-13.08-1.67-4.29-3.23-8.62-4.84-12.92-2.53-6.81-7.87-12.29-13-17.3a103.54,103.54,0,0,0-41.62-24.42A98.62,98.62,0,0,0,25.09,203.6Z" transform="translate(-25.09 -12.62)" fill="#464d48"/><path d="M25.09,203.6c.1,3.35,1.75,6.43,3.4,9.35C36,226.2,44.4,239.24,56,249.08c17.08,14.45,39.45,20.67,61.05,26.51-1.94-.94-4.26-10.89-5.12-13.08-1.67-4.29-3.23-8.62-4.84-12.92-2.53-6.81-7.87-12.29-13-17.3a103.54,103.54,0,0,0-41.62-24.42A98.62,98.62,0,0,0,25.09,203.6Z" transform="translate(-25.09 -12.62)" fill="url(#linear-gradient-2)"/><path d="M109.6,211c-1.76-12.32-3.57-24.81-8.53-36.23S87.52,153,75.85,148.62l-1,52.95c-.2,10.19-.37,20.58,2.55,30.35,5.14,17.12,22.94,37.21,40.1,42.87,2.54-8.23-1.73-20.68-3-29.22Z" transform="translate(-25.09 -12.62)" fill="#464d48"/><path d="M322.35,195.1c-.09,3.34-1.75,6.43-3.4,9.34-7.49,13.25-15.9,26.3-27.52,36.13-17.08,14.45-39.44,20.68-61,26.51,1.93-.94,4.25-10.89,5.11-13.08,1.67-4.29,3.23-8.61,4.84-12.92,2.53-6.81,7.87-12.28,13.06-17.29A103.29,103.29,0,0,1,295,199.37,97.76,97.76,0,0,1,322.35,195.1Z" transform="translate(-25.09 -12.62)" fill="#464d48"/><path d="M322.35,195.1c-.09,3.34-1.75,6.43-3.4,9.34-7.49,13.25-15.9,26.3-27.52,36.13-17.08,14.45-39.44,20.68-61,26.51,1.93-.94,4.25-10.89,5.11-13.08,1.67-4.29,3.23-8.61,4.84-12.92,2.53-6.81,7.87-12.28,13.06-17.29A103.29,103.29,0,0,1,295,199.37,97.76,97.76,0,0,1,322.35,195.1Z" transform="translate(-25.09 -12.62)" fill="url(#linear-gradient-3)"/><path d="M237.84,202.51c1.76-12.32,3.57-24.82,8.53-36.23s13.55-21.82,25.22-26.16q.51,26.48,1,52.94c.19,10.2.37,20.59-2.56,30.36-5.13,17.12-22.94,37.21-40.09,42.86-2.55-8.22,1.72-20.68,2.94-29.22Z" transform="translate(-25.09 -12.62)" fill="#464d48"/><path d="M115.09,152.54a2.22,2.22,0,0,0-.68.78,6.23,6.23,0,0,0-1.33,4,.35.35,0,0,0,.08.22.43.43,0,0,0,.2.07c.62.09,1.25.16,1.88.21a11.44,11.44,0,0,0-.29,5.08,1.86,1.86,0,0,0,.31,1.06,2,2,0,0,0,1.57.49h3.7a12.62,12.62,0,0,0,2-.11.64.64,0,0,0,.33-.13.54.54,0,0,0,.13-.35c.23-1.62-.24-3.24-.31-4.87a.51.51,0,0,1,0-.3.54.54,0,0,1,.27-.22l1.08-.57a.79.79,0,0,0,.27-.21.75.75,0,0,0,.09-.39,5.07,5.07,0,0,0-1.32-4,4.77,4.77,0,0,0-2.81-.94c-.94-.06-1.87-.1-2.81-.21A4.43,4.43,0,0,0,115.09,152.54Z" transform="translate(-25.09 -12.62)" fill="none"/><path d="M117.67,152.92a1.46,1.46,0,0,0,.37.52,1.24,1.24,0,0,0,.56.22,1.18,1.18,0,0,0,.59-.07,1,1,0,0,0,.44-.44,2.06,2.06,0,0,0,.17-.6,3.49,3.49,0,0,0-.14-1.47,1.18,1.18,0,0,0-.21-.4,1,1,0,0,0-.61-.28c-.32-.06-1.07-.11-1.22.27a3.17,3.17,0,0,0-.18,1.4A2.82,2.82,0,0,0,117.67,152.92Z" transform="translate(-25.09 -12.62)" fill="none"/><path d="M120.94,148.43a2.92,2.92,0,0,1-.69,2,1.67,1.67,0,0,1-2,.42,2.81,2.81,0,0,1-.62-.52,4.53,4.53,0,0,1-.82-1,3.18,3.18,0,0,1-.28-1.14,3.28,3.28,0,0,1,.11-1.39,1.8,1.8,0,0,1,.88-1.05,2.72,2.72,0,0,1,1.06-.18,4.74,4.74,0,0,1,1.25.13c.47.13.87.33.9.84S121,147.78,120.94,148.43Z" transform="translate(-25.09 -12.62)" fill="none"/><path d="M220.07,30.06,127.5,39.17c-9.56.94-17.32,9-17.32,17.95V264.67c0,9,7.76,15.48,17.32,14.54l92.57-9.11c9.57-.94,17.33-9,17.33-17.94V44.61C237.4,35.63,229.64,29.12,220.07,30.06Zm8.49,222.54c0,5.53-4.78,10.48-10.67,11.06l-89.95,8.85c-5.9.58-10.68-3.43-10.68-9v-207c0-5.53,4.78-10.48,10.68-11.06l13.48-1.33v1.23c0,3.54,3.06,6.11,6.83,5.74L198,46.26a7.48,7.48,0,0,0,6.84-7.08V38l13-1.28c5.89-.58,10.67,3.43,10.67,9Z" transform="translate(-25.09 -12.62)" fill="#464d48"/><path d="M224.43,33.89,131.85,43c-9.56.94-17.32,9-17.32,18V268.5c0,9,7.76,15.48,17.32,14.54l92.58-9.1c9.56-.94,17.32-9,17.32-17.95V48.44C241.75,39.47,234,33,224.43,33.89Zm8.49,222.54c0,5.53-4.78,10.48-10.68,11.06l-90,8.85c-5.9.58-10.68-3.43-10.68-9v-207c0-5.53,4.78-10.49,10.68-11.07L145.77,48v1.22c0,3.54,3.06,6.11,6.83,5.74l49.76-4.89A7.5,7.5,0,0,0,209.19,43V41.79l13.05-1.29c5.9-.58,10.68,3.44,10.68,9Z" transform="translate(-25.09 -12.62)" fill="#fff"/><path d="M232.92,49.47v207c0,5.53-4.78,10.48-10.68,11.06l-90,8.85c-5.9.58-10.68-3.43-10.68-9v-207c0-5.53,4.78-10.49,10.68-11.07L145.77,48v1.22c0,3.54,3.06,6.11,6.83,5.74l49.76-4.89A7.5,7.5,0,0,0,209.19,43V41.79l13.05-1.29C228.14,39.92,232.92,43.94,232.92,49.47Z" transform="translate(-25.09 -12.62)" fill="none" stroke-miterlimit="10" stroke-width="0.63" stroke="url(#linear-gradient-4)"/><path d="M232.92,49.47v207c0,5.53-4.78,10.48-10.68,11.06l-90,8.85c-5.9.58-10.68-3.43-10.68-9v-207c0-5.53,4.78-10.49,10.68-11.07L145.77,48v1.22c0,3.54,3.06,6.11,6.83,5.74l49.76-4.89A7.5,7.5,0,0,0,209.19,43V41.79l13.05-1.29C228.14,39.92,232.92,43.94,232.92,49.47Z" transform="translate(-25.09 -12.62)" fill="#464d48"/><path d="M202.2,245.88,157,250.21A4.62,4.62,0,0,1,152,245.6V234.29a4.68,4.68,0,0,1,4.23-4.66l45.18-4.33a4.62,4.62,0,0,1,5.06,4.61v11.31A4.69,4.69,0,0,1,202.2,245.88Z" transform="translate(-25.09 -12.62)" fill="url(#linear-gradient-5)"/><polygon points="159.17 34.76 142.07 36.44 142.07 35.02 159.17 33.34 159.17 34.76" fill="url(#linear-gradient-6)"/><ellipse cx="188.77" cy="46.01" rx="1.91" ry="1.7" transform="translate(-22.51 88.93) rotate(-30.31)" fill="url(#linear-gradient-7)"/><path d="M144,206.11l65.21-6.25a8.79,8.79,0,0,0,8-8.83V117.46a9.72,9.72,0,0,0-10.52-9.61l-65.21,6.25a8.78,8.78,0,0,0-8,8.82V196.5A9.72,9.72,0,0,0,144,206.11Z" transform="translate(-25.09 -12.62)" fill="#c9d9df"/><path d="M147.85,207.15l65.21-6.25a8.78,8.78,0,0,0,8-8.82V118.5a9.72,9.72,0,0,0-10.52-9.61l-65.21,6.25a8.79,8.79,0,0,0-8,8.83v73.57A9.72,9.72,0,0,0,147.85,207.15Z" transform="translate(-25.09 -12.62)" fill="url(#linear-gradient-8)"/><g id="BD3XWZ"><path d="M150.36,128.62l23.4-1.88v23.49l-23.4,1.88Zm19.52,18V131l-15.64,1.26v15.71Z" transform="translate(-25.09 -12.62)" fill="#473f47"/><path d="M189.54,125.45l23.38-1.88v23.51L189.54,149Zm19.51,18.06V127.8l-15.65,1.26v15.71Z" transform="translate(-25.09 -12.62)" fill="#473f47"/><path d="M173.76,189.55l-23.4,1.88V168l23.4-1.88Zm-19.54-2.33L169.9,186v-15.7l-15.68,1.26Z" transform="translate(-25.09 -12.62)" fill="#473f47"/><path d="M181.61,130l3.9-.31v7.81l-3.87.31v3.9l-3.85.31v-15.6l3.82-.31Z" transform="translate(-25.09 -12.62)" fill="#473f47"/><path d="M212.93,158.88l-7.74.62v-3.9l-7.82.62v-3.85l15.56-1.25Z" transform="translate(-25.09 -12.62)" fill="#473f47"/><path d="M209.06,175v3.86l3.86-.31v7.81l-7.71.62V175.34Z" transform="translate(-25.09 -12.62)" fill="#473f47"/><path d="M158.12,155.52v3.87l3.88-.31V163l-11.63.94v-7.76Z" transform="translate(-25.09 -12.62)" fill="#473f47"/><path d="M181.64,153.6l11.68-.94v7.81l-7.78.63,0,0v-4l-3.9.31v-3.9Z" transform="translate(-25.09 -12.62)" fill="#473f47"/><path d="M189.54,164.74l3.87-.31v-3.88l7.76-.63v7.76l-11.63.93Z" transform="translate(-25.09 -12.62)" fill="#473f47"/><path d="M185.54,161.1v7.81l-7.78.63v-7.81l0,0,7.82-.63Z" transform="translate(-25.09 -12.62)" fill="#473f47"/><path d="M185.53,180.85l2.1-.21,5.13-.41.58,0V188l-7.76.63v-7.2c0-.19,0-.37,0-.56Z" transform="translate(-25.09 -12.62)" fill="#473f47"/><path d="M177.76,161.73l-7.79.62v-3.88l3.85-.31v-3.93l3.93-.32h0v7.85Z" transform="translate(-25.09 -12.62)" fill="#473f47"/><path d="M212.93,170.66l-3.83.31v-3.89l-3.88.31v-3.87l7.71-.62Z" transform="translate(-25.09 -12.62)" fill="#473f47"/><path d="M181.67,181.13v-4l-3.88.31V173.6l7.74-.62v7.85c-.6,0-1.19,0-1.78.08s-1.4.14-2.1.21Z" transform="translate(-25.09 -12.62)" fill="#473f47"/><path d="M181.68,149.69v-7.85l3.83-.31v7.84l-3.85.31Z" transform="translate(-25.09 -12.62)" fill="#473f47"/><path d="M181.66,181.12l0,7.15v.64l-3.85.31v-7.77l3.89-.32Z" transform="translate(-25.09 -12.62)" fill="#473f47"/><path d="M169.84,154.58v3.83l-7.71.62V155.2Z" transform="translate(-25.09 -12.62)" fill="#473f47"/><path d="M197.37,175.84V172l7.72-.62v3.81Z" transform="translate(-25.09 -12.62)" fill="#473f47"/><path d="M197.37,187.64V179.9l3.8-.31v7.74Z" transform="translate(-25.09 -12.62)" fill="#473f47"/><path d="M177.75,153.91V150l3.93-.32h0c0,1.31,0,2.61,0,3.92l0,0-3.92.32Z" transform="translate(-25.09 -12.62)" fill="#473f47"/><path d="M189.53,176.47v-3.82l3.8-.3v3.81Z" transform="translate(-25.09 -12.62)" fill="#473f47"/><path d="M185.61,172.85V169l3.81-.31v3.82Z" transform="translate(-25.09 -12.62)" fill="#473f47"/><path d="M197.25,179.79l-3.79.31v-3.83l3.79-.31Z" transform="translate(-25.09 -12.62)" fill="#473f47"/><path d="M165.93,135.24l-7.73.62v7.74l7.73-.62Z" transform="translate(-25.09 -12.62)" fill="#473f47"/><path d="M205.09,139.85v-7.76l-7.7.62v7.76Z" transform="translate(-25.09 -12.62)" fill="#473f47"/><path d="M158.18,182.93l7.73-.62v-7.75l-7.73.62Z" transform="translate(-25.09 -12.62)" fill="#473f47"/><path d="M165.93,135.24V143l-7.73.62v-7.74Z" transform="translate(-25.09 -12.62)" fill="#473f47"/><path d="M205.09,139.85l-7.7.62v-7.76l7.7-.62Z" transform="translate(-25.09 -12.62)" fill="#473f47"/><path d="M158.18,182.93v-7.75l7.73-.62v7.75Z" transform="translate(-25.09 -12.62)" fill="#473f47"/></g><path d="M204.46,244.38l-45.18,4.32a4.61,4.61,0,0,1-5.06-4.6V232.79a4.68,4.68,0,0,1,4.23-4.66l45.18-4.33a4.62,4.62,0,0,1,5.06,4.61v11.31A4.68,4.68,0,0,1,204.46,244.38Z" transform="translate(-25.09 -12.62)" fill="#fff"/><path d="M167.64,239.49l1.86-.18a.65.65,0,0,0,.25.49,1,1,0,0,0,.68.14,1.37,1.37,0,0,0,.66-.23.59.59,0,0,0,.28-.52.61.61,0,0,0,0-.15.69.69,0,0,0-.21-.18,1.68,1.68,0,0,0-.53-.2l-.89-.2a3.4,3.4,0,0,1-1-.33,1.6,1.6,0,0,1-.61-.52,1.94,1.94,0,0,1-.35-1.11,2.2,2.2,0,0,1,.75-1.69,3.19,3.19,0,0,1,1.9-.79,2.59,2.59,0,0,1,1.88.44,1.87,1.87,0,0,1,.73,1.59l-1.84.17c0-.45-.26-.65-.79-.6a1,1,0,0,0-.59.21.56.56,0,0,0-.21.44c0,.26.23.44.7.53l.87.19c1.4.28,2.1,1,2.1,2a2.08,2.08,0,0,1-.45,1.33,2.67,2.67,0,0,1-1.06.82,4,4,0,0,1-1.3.33,2.89,2.89,0,0,1-2-.43A1.84,1.84,0,0,1,167.64,239.49Z" transform="translate(-25.09 -12.62)" fill="#464d48"/><path d="M179.63,238l1.51.87a4.24,4.24,0,0,1-1.38,1.35,4.2,4.2,0,0,1-1.84.62,3.49,3.49,0,0,1-2.73-.84,3.24,3.24,0,0,1-1.13-2.54,3.92,3.92,0,0,1,1.13-2.75,4.11,4.11,0,0,1,2.73-1.34,3.69,3.69,0,0,1,1.85.27,3.33,3.33,0,0,1,1.38,1.1l-1.53,1.16a1.64,1.64,0,0,0-.72-.6,1.9,1.9,0,0,0-1-.16,2.14,2.14,0,0,0-1.42.71,2.05,2.05,0,0,0-.58,1.44,1.67,1.67,0,0,0,.58,1.33,1.78,1.78,0,0,0,1.42.44,2.16,2.16,0,0,0,1-.33A2.28,2.28,0,0,0,179.63,238Z" transform="translate(-25.09 -12.62)" fill="#464d48"/><path d="M186.92,239.87l-.64-1.61-2.38.22-.64,1.73-2,.18,2.8-7.54,2-.18,2.78,7Zm-1.85-5.42-.68,2.46,1.42-.13Z" transform="translate(-25.09 -12.62)" fill="#464d48"/><path d="M193.52,232l1.83-.17v7.29l-1.6.14-2.32-3.76v4l-1.84.17v-7.29l1.66-.15,2.27,3.71Z" transform="translate(-25.09 -12.62)" fill="#464d48"/><polygon points="239.54 117.89 190.49 95.19 110.19 104.9 112.23 190.58 118.91 193.49 192.11 187.62 195.96 179.46 238.81 121.25 239.54 117.89" fill="url(#linear-gradient-9)"/><path d="M262.72,135.76v-7.18a1.34,1.34,0,0,1,.68-1.17l4-2.23c.42-.24,2.08.73,2.08,1.21l-1.13,12.32-2.81,2.17-2.81-1.65Z" transform="translate(-25.09 -12.62)" fill="#fff"/><path d="M262.72,135.76v-7.18a1.34,1.34,0,0,1,.68-1.17l4-2.23c.42-.24,2.08.73,2.08,1.21l-1.13,12.32-2.81,2.17-2.81-1.65Z" transform="translate(-25.09 -12.62)" fill="url(#linear-gradient-10)"/><path d="M263.9,136.65v-7.19a1.32,1.32,0,0,1,.68-1.16l4-2.24a.64.64,0,0,1,.95.55v13l-2.81,2.16-2.81-1.64Z" transform="translate(-25.09 -12.62)" fill="#fff"/><path d="M264.63,136.35v-5.84l4.55-2.87v9.66l-1,3.25-2.12.7s-1.13-.48-1.13-.63" transform="translate(-25.09 -12.62)" fill="#464d48"/><path d="M328.23,189.54l-.6.81,2.16-30.76.43-6.18.21-3,1.13,2.43c2.12,4.47,6.52,13.82,7.75,16.38C340.72,172.16,330.8,186,328.23,189.54Z" transform="translate(-25.09 -12.62)" fill="#fff"/><path d="M328.23,189.54a3.72,3.72,0,0,1-.27-1.87,8.74,8.74,0,0,1,1.76-3.84c2.38-3.5,5.36-7.21,6.73-11.27,1.8-5.37-4.1-8.7-6.66-13a7.09,7.09,0,0,1-1.13-3.36,2.94,2.94,0,0,1,1.56-2.82,5,5,0,0,1,1.34-.58c2.12,4.47,6.52,13.82,7.75,16.38C340.72,172.16,330.8,186,328.23,189.54Z" transform="translate(-25.09 -12.62)" fill="#020202" opacity="0.1"/><path d="M313.58,274.17a4.87,4.87,0,0,0-2.24,2.08,1,1,0,0,0-.09.66,1.24,1.24,0,0,0,.79.69c2.52,1,5.37.81,8,.33a42.49,42.49,0,0,1,8.05-1.17,1.62,1.62,0,0,0,1.3-.36,1.38,1.38,0,0,0,.23-.85,16.16,16.16,0,0,0-1.2-6.9c.06.14-7.13.43-7.75.85-1.14.79-2.09,1.8-3.31,2.53S314.85,273.45,313.58,274.17Z" transform="translate(-25.09 -12.62)" fill="#282328"/><path d="M323.14,222.7a164.81,164.81,0,0,0,2.16,27.48c.24,1.58.5,3.15.82,4.72,2.36,11.6,2.55,14.55,2.55,14.55h-9.48s-7-32.85-9.6-40.33A118.85,118.85,0,0,1,305,211.74a15.56,15.56,0,0,1,1-8.27,10.62,10.62,0,0,1,1.55-2.87,11.93,11.93,0,0,1,4.7-3.18,30.9,30.9,0,0,1,12.17-2.74,2.4,2.4,0,0,1,1.38.3,2.2,2.2,0,0,1,.62.82c1.23,2.5,1,5.44.62,8.2a20.78,20.78,0,0,1-1,4.5c-.56,1.49-1.44,2.84-1.95,4.35a18.67,18.67,0,0,0-.76,4.47C323.27,219.11,323.18,220.9,323.14,222.7Z" transform="translate(-25.09 -12.62)" fill="#282328"/><path d="M299.38,215.44a17.83,17.83,0,0,1,.23,3.62,64.35,64.35,0,0,0,.21,6.51c.53,10.31,2.09,20.58,2.1,30.9,0,8.8-.29,18-.29,18s7.67,2.36,9.44.59l2.95-42.5c.45-3.21,1.14-6.47,1.37-9.7.2-2.81.26-5.19,1.31-7.89,1.18-3,2.86-5.83,3.77-8.95a18.84,18.84,0,0,0,.75-6.16,3,3,0,0,0-.5-1.8,3.3,3.3,0,0,0-1.25-.81c-5.31-2.36-10.82-4.76-16.63-4.71a2.38,2.38,0,0,0-1.35.29,2.48,2.48,0,0,0-.81,1.25,35.33,35.33,0,0,0-1.91,17.7C299,213.07,299.2,214.25,299.38,215.44Z" transform="translate(-25.09 -12.62)" fill="#473f47"/><path d="M270.74,143c-.23-1.35-.2-2.76-.32-4.13a3.11,3.11,0,0,0-.42-1.53,1.17,1.17,0,0,0-1.4-.47c-.62.31-.64,1.16-.62,1.85s-.16,1.57-.84,1.7a1.29,1.29,0,0,1-.74-.15,2.48,2.48,0,0,1-1.28-1.81c-.06-.45,0-.92-.08-1.37-.26-1.3-1.94-1.08-2.72-.4a5.15,5.15,0,0,0-1.1,1.55,11.34,11.34,0,0,0-1.23,3.15c-.83,4.51,4.61,5.48,6.91,8.36A9.84,9.84,0,0,0,268,151a2.93,2.93,0,0,0,2.88.54,2.9,2.9,0,0,0,1.86-2.26c.27-1.68-.95-3.19-1.55-4.79A8.22,8.22,0,0,1,270.74,143Z" transform="translate(-25.09 -12.62)" fill="#ffbbab"/><path d="M309.85,131.28a1.38,1.38,0,0,1,.21.42,2.1,2.1,0,0,1,0,.93,39.34,39.34,0,0,0-.83,5.49,2.33,2.33,0,0,0,.28,1.5,2.36,2.36,0,0,0,1.58.74,14.64,14.64,0,0,0,2.65.18c.35,0,.78,0,1,.29a.93.93,0,0,1,.12.43,4.08,4.08,0,0,1-.39,2,1.81,1.81,0,0,0-.26,1c.07.64,1,.58,1.48.61,1.82.09,3.65.1,5.47,0a1.89,1.89,0,0,0,.91-.19c.49-.29.6-.94.74-1.49.62-2.55,2.59-4.53,3.65-6.93a10.53,10.53,0,0,0,.07-8.1,11.17,11.17,0,0,0-2.12-3.33c-.82-.91-2.4-1.1-3.54-1.34-2-.42-4.22-.54-6,.53-2,1.2-2.92,3.66-4.93,4.81-.35.2-.78.4-.9.79a1.24,1.24,0,0,0,.37,1.09C309.54,130.91,309.71,131.08,309.85,131.28Z" transform="translate(-25.09 -12.62)" fill="#ffbbab"/><path d="M315.42,123.32a2.9,2.9,0,0,0,.28.89c.64,1.33,1.48,1,2.63,1.17,1.4.25,2.31,1.82,2.6,3.1a12.26,12.26,0,0,1-.15,4.67A1.91,1.91,0,0,1,323,133a2.09,2.09,0,0,1,.86,2.1,2.19,2.19,0,0,1-1.58,1.67c-.39.1-.85.12-1.09.44a1.29,1.29,0,0,0-.16.76c0,1.7.07,3.55,1.15,4.87,1.5-.15,2.64-1.35,3.76-2.35,1.59-1.42,3.41-2.58,4.94-4.07a8.34,8.34,0,0,0,2.81-5.57c.05-3.45-3-6.11-4.12-9.36a12.92,12.92,0,0,0-.79-2.13,4,4,0,0,0-5.84-1,4.94,4.94,0,0,0-5.43,0A5.58,5.58,0,0,0,315.42,123.32Z" transform="translate(-25.09 -12.62)" fill="#fc682d"/><path d="M330.06,161.26a56.32,56.32,0,0,0-.4,9.72c.09,3.17.24,6.32.37,9.49-.61,2.73-1.29,5.46-2,8.16a25.3,25.3,0,0,1-2.21,6.35,9.42,9.42,0,0,1-2,2.57,9.62,9.62,0,0,1-2.69,1.67,16.94,16.94,0,0,1-7.23,1,23.22,23.22,0,0,1-5.12-.78h0a14.34,14.34,0,0,1-5.83-3,12.58,12.58,0,0,1-2.2-2.58,17.49,17.49,0,0,1-2.59-7.79,28.75,28.75,0,0,1,1.71-13.4c.09-.25.19-.49.29-.74.69-1.76,1.38-3.52,2.09-5.28,0,0,0-.05,0-.07.11-.28.22-.54.32-.81l.06-.15-.39.16-.41.15a3.1,3.1,0,0,1-.4.13c-.29.11-.6.19-.89.27l-1,.25c-.57.12-1.15.23-1.73.3l-.79.09c-7.27.64-15.2-2.3-21.28-5.55h0a21.44,21.44,0,0,1-5.38-3.89,13.54,13.54,0,0,1-.93-1.1,9.37,9.37,0,0,1-1.58-3.21,3.62,3.62,0,0,1,0-2.16.56.56,0,0,1,.05-.08,4.35,4.35,0,0,1,.9-1.29,37.9,37.9,0,0,1,2.93-2.88l.32-.28A2.59,2.59,0,0,1,273,146a2.42,2.42,0,0,1,2,.44,9.75,9.75,0,0,1,1.42,1.21,27.85,27.85,0,0,0,20.94,7.64,16.25,16.25,0,0,0,6.08-1.46,23,23,0,0,0,4.64-3.32,43.82,43.82,0,0,0,3.62-3.32c.3-.32.61-.65.88-1s.44-.54.65-.81l.26-.34a2.88,2.88,0,0,1,.88-.86h0a3.54,3.54,0,0,1,1.61-.32c2.17-.09,4.53-.5,6.67-.45h.23a4.2,4.2,0,0,1,.62.07,4,4,0,0,1,2,.93l0,0a16.39,16.39,0,0,1,1.9,2.18,15.74,15.74,0,0,1,3.08,5C331.52,154.65,330.54,158,330.06,161.26Z" transform="translate(-25.09 -12.62)" fill="#fff"/><path d="M332.56,160.93a70.33,70.33,0,0,1-.79,10.36c-.45,3.09-1,6.14-1.74,9.18-.13-3.17-.28-6.32-.37-9.49a56.32,56.32,0,0,1,.4-9.72c.48-3.25,1.46-6.61.45-9.73a15.74,15.74,0,0,0-3.08-5,16.39,16.39,0,0,0-1.9-2.18c2,1.51,3.58,4.32,4.9,6C332.68,153.3,332.54,157.41,332.56,160.93Z" transform="translate(-25.09 -12.62)" fill="#fff"/><path d="M332.56,160.93a70.33,70.33,0,0,1-.79,10.36c-.45,3.09-1,6.14-1.74,9.18-.13-3.17-.28-6.32-.37-9.49a56.32,56.32,0,0,1,.4-9.72c.48-3.25,1.46-6.61.45-9.73a15.74,15.74,0,0,0-3.08-5,16.39,16.39,0,0,0-1.9-2.18c2,1.51,3.58,4.32,4.9,6C332.68,153.3,332.54,157.41,332.56,160.93Z" transform="translate(-25.09 -12.62)" fill="#020202" opacity="0.1"/><path d="M330.06,161.26a56.32,56.32,0,0,0-.4,9.72c.09,3.17.24,6.32.37,9.49-.61,2.73-1.29,5.46-2,8.16a25.3,25.3,0,0,1-2.21,6.35,9.42,9.42,0,0,1-2,2.57,9.62,9.62,0,0,1-2.69,1.67,16.94,16.94,0,0,1-7.23,1,23.22,23.22,0,0,1-5.12-.78h0a14.34,14.34,0,0,1-5.83-3,12.58,12.58,0,0,1-2.2-2.58,17.49,17.49,0,0,1-2.59-7.79,28.75,28.75,0,0,1,1.71-13.4c.09-.25.19-.49.29-.74a53.6,53.6,0,0,0,2.09-5.28s0-.05,0-.07c.08-.3.15-.58.22-.87a1,1,0,0,1-.23.07l-.41.15a3.1,3.1,0,0,1-.4.13c-.29.11-.6.19-.89.27l-1,.25c-.57.12-1.15.23-1.73.3l-.79.09c-7.37.75-14.93-2.13-21.28-5.55h0a21.44,21.44,0,0,1-5.38-3.89,13.54,13.54,0,0,1-.93-1.1,9.37,9.37,0,0,1-1.58-3.21,3.62,3.62,0,0,1,0-2.16.56.56,0,0,1,.05-.08,4.35,4.35,0,0,1,.9-1.29,37.9,37.9,0,0,1,2.93-2.88l.32-.28A2.59,2.59,0,0,1,273,146a2.42,2.42,0,0,1,2,.44,9.75,9.75,0,0,1,1.42,1.21,27.85,27.85,0,0,0,20.94,7.64,16.25,16.25,0,0,0,6.08-1.46,23,23,0,0,0,4.64-3.32,43.82,43.82,0,0,0,3.62-3.32c.3-.32.61-.65.88-1s.44-.54.65-.81l.26-.34a2.88,2.88,0,0,1,.88-.86h0a3.54,3.54,0,0,1,1.61-.32c2.17-.09,4.53-.5,6.67-.45h.23a4.2,4.2,0,0,1,.62.07,5.13,5.13,0,0,1,2,.93l0,0a16.39,16.39,0,0,1,1.9,2.18,15.74,15.74,0,0,1,3.08,5C331.52,154.65,330.54,158,330.06,161.26Z" transform="translate(-25.09 -12.62)" fill="#020202" opacity="0.1"/><path d="M295.9,279.76a4.82,4.82,0,0,0-2.24,2.08,1,1,0,0,0-.09.66,1.2,1.2,0,0,0,.79.68c2.52,1,5.37.82,8.05.34a42.47,42.47,0,0,1,8.06-1.17,1.61,1.61,0,0,0,1.29-.36,1.38,1.38,0,0,0,.23-.85,16.16,16.16,0,0,0-1.2-6.9c.06.14-7.13.42-7.74.85-1.15.79-2.1,1.8-3.32,2.53S297.17,279,295.9,279.76Z" transform="translate(-25.09 -12.62)" fill="#282328"/><path d="M283.86,158.35c-4.79-1.71-9.67-3.4-13.49-6.84a2.13,2.13,0,0,1-.85-1.32,2.21,2.21,0,0,1,1-1.63,10.27,10.27,0,0,1,2.31-1.75,3.47,3.47,0,0,1,2.81-.25,5.89,5.89,0,0,1,1.7,1.29,25.54,25.54,0,0,0,12.5,6.14c4.53,1,9.52,1.06,13.87-.7,2.52-1,8-7.63,10.45-6.66s1.37,5.86.18,7.38c-2.57,3.27-9.08,4.82-13,5.56A33.43,33.43,0,0,1,283.86,158.35Z" transform="translate(-25.09 -12.62)" fill="#fff"/><path d="M322,147.54a4.24,4.24,0,0,0,2.28-2.7,13.14,13.14,0,0,0-4-.2l-3.83.19-2.52.13c-1.57.09-1.6.78-1,1.86.28.51,1,.92,1.3,1.47s.35,1.14.71,1.56c1,1.2,1.28.52,2.57-.26S320.53,148.34,322,147.54Z" transform="translate(-25.09 -12.62)" fill="#fff"/><polygon points="234.81 42.87 279.76 38.15 247.62 50.74 234.81 42.87" fill="#464d48"/><polygon points="279.76 38.15 252.97 64.07 247.62 50.74 279.76 38.15" fill="#464d48"/><polygon points="279.76 38.15 252.97 64.07 247.62 50.74 279.76 38.15" fill="url(#linear-gradient-11)"/><polygon points="242.32 64.96 247.62 50.74 279.76 38.15 242.32 64.96" fill="#464d48"/><polygon points="279.76 38.15 247.62 47.99 234.81 42.87 247.62 50.74 279.76 38.15" fill="url(#linear-gradient-12)"/></svg>